<?xml version="1.0" encoding="UTF-8"?>
<svg xmlns="http://www.w3.org/2000/svg"
    xmlns:xlink="http://www.w3.org/1999/xlink"
    version="1.1" baseProfile="full"
    width="500mm" height="500mm"
    viewBox="-20 -20 700 700">
    <title>Titel der Datei</title>
    <desc>Beschreibung/Textalternative zum Inhalt.</desc>

<!--Inhalt der Datei -->

<!-- Koordinatensystem -->
<!-- Senkrechte -->
<line x1="0"   y1="0" x2="0"   y2="2000" stroke="lightgrey" stroke-width="1px" />
<line x1="20"   y1="0" x2="20"   y2="2000" stroke="lightgrey" stroke-width="1px" />
<line x1="40"   y1="0" x2="40"   y2="2000" stroke="lightgrey" stroke-width="1px" />
<line x1="60"   y1="0" x2="60"   y2="2000" stroke="lightgrey" stroke-width="1px" />
<line x1="80"   y1="0" x2="80"   y2="2000" stroke="lightgrey" stroke-width="1px" />
<line x1="100"   y1="0" x2="100"   y2="2000" stroke="lightgrey" stroke-width="1px" />
<line x1="120"   y1="0" x2="120"   y2="2000" stroke="lightgrey" stroke-width="1px" />
<line x1="140"   y1="0" x2="140"   y2="2000" stroke="lightgrey" stroke-width="1px" />
<line x1="160"   y1="0" x2="160"   y2="2000" stroke="lightgrey" stroke-width="1px" />
<line x1="180"   y1="0" x2="180"   y2="2000" stroke="lightgrey" stroke-width="1px" />
<line x1="200"   y1="0" x2="200"   y2="2000" stroke="lightgrey" stroke-width="1px" />
<line x1="220"   y1="0" x2="220"   y2="2000" stroke="lightgrey" stroke-width="1px" />
<line x1="240"   y1="0" x2="240"   y2="2000" stroke="lightgrey" stroke-width="1px" />
<line x1="260"   y1="0" x2="260"   y2="2000" stroke="lightgrey" stroke-width="1px" />
<line x1="280"   y1="0" x2="280"   y2="2000" stroke="lightgrey" stroke-width="1px" />
<line x1="300"   y1="0" x2="300"   y2="2000" stroke="lightgrey" stroke-width="1px" />
<line x1="320"   y1="0" x2="320"   y2="2000" stroke="lightgrey" stroke-width="1px" />
<line x1="340"   y1="0" x2="340"   y2="2000" stroke="lightgrey" stroke-width="1px" />
<line x1="360"   y1="0" x2="360"   y2="2000" stroke="lightgrey" stroke-width="1px" />
<line x1="380"   y1="0" x2="380"   y2="2000" stroke="lightgrey" stroke-width="1px" />
<line x1="400"   y1="0" x2="400"   y2="2000" stroke="lightgrey" stroke-width="1px" />
<line x1="420"   y1="0" x2="420"   y2="2000" stroke="lightgrey" stroke-width="1px" />
<line x1="440"   y1="0" x2="440"   y2="2000" stroke="lightgrey" stroke-width="1px" />
<line x1="460"   y1="0" x2="460"   y2="2000" stroke="lightgrey" stroke-width="1px" />
<line x1="480"   y1="0" x2="480"   y2="2000" stroke="lightgrey" stroke-width="1px" />
<line x1="500"   y1="0" x2="500"   y2="2000" stroke="lightgrey" stroke-width="1px" />
<line x1="520"   y1="0" x2="520"   y2="2000" stroke="lightgrey" stroke-width="1px" />
<line x1="540"   y1="0" x2="540"   y2="2000" stroke="lightgrey" stroke-width="1px" />
<line x1="560"   y1="0" x2="560"   y2="2000" stroke="lightgrey" stroke-width="1px" />
<line x1="580"   y1="0" x2="580"   y2="2000" stroke="lightgrey" stroke-width="1px" />
<line x1="600"   y1="0" x2="600"   y2="2000" stroke="lightgrey" stroke-width="1px" />
<line x1="620"   y1="0" x2="620"   y2="2000" stroke="lightgrey" stroke-width="1px" />
<line x1="640"   y1="0" x2="640"   y2="2000" stroke="lightgrey" stroke-width="1px" />
<line x1="660"   y1="0" x2="660"   y2="2000" stroke="lightgrey" stroke-width="1px" />
<line x1="680"   y1="0" x2="680"   y2="2000" stroke="lightgrey" stroke-width="1px" />
<line x1="700"   y1="0" x2="700"   y2="2000" stroke="lightgrey" stroke-width="1px" />
<line x1="720"   y1="0" x2="720"   y2="2000" stroke="lightgrey" stroke-width="1px" />
<line x1="740"   y1="0" x2="740"   y2="2000" stroke="lightgrey" stroke-width="1px" />
<line x1="760"   y1="0" x2="760"   y2="2000" stroke="lightgrey" stroke-width="1px" />
<line x1="780"   y1="0" x2="780"   y2="2000" stroke="lightgrey" stroke-width="1px" />
<line x1="800"   y1="0" x2="800"   y2="2000" stroke="lightgrey" stroke-width="1px" />
<line x1="820"   y1="0" x2="820"   y2="2000" stroke="lightgrey" stroke-width="1px" />
<line x1="840"   y1="0" x2="840"   y2="2000" stroke="lightgrey" stroke-width="1px" />
<line x1="860"   y1="0" x2="860"   y2="2000" stroke="lightgrey" stroke-width="1px" />
<line x1="880"   y1="0" x2="880"   y2="2000" stroke="lightgrey" stroke-width="1px" />
<line x1="900"   y1="0" x2="900"   y2="2000" stroke="lightgrey" stroke-width="1px" />
<line x1="920"   y1="0" x2="920"   y2="2000" stroke="lightgrey" stroke-width="1px" />
<line x1="940"   y1="0" x2="940"   y2="2000" stroke="lightgrey" stroke-width="1px" />
<line x1="960"   y1="0" x2="960"   y2="2000" stroke="lightgrey" stroke-width="1px" />
<line x1="980"   y1="0" x2="980"   y2="2000" stroke="lightgrey" stroke-width="1px" />
<line x1="1000"   y1="0" x2="1000"   y2="2000" stroke="lightgrey" stroke-width="1px" />
<line x1="1020"   y1="0" x2="1020"   y2="2000" stroke="lightgrey" stroke-width="1px" />
<line x1="1040"   y1="0" x2="1040"   y2="2000" stroke="lightgrey" stroke-width="1px" />
<line x1="1060"   y1="0" x2="1060"   y2="2000" stroke="lightgrey" stroke-width="1px" />
<line x1="1080"   y1="0" x2="1080"   y2="2000" stroke="lightgrey" stroke-width="1px" />
<line x1="1100"   y1="0" x2="1100"   y2="2000" stroke="lightgrey" stroke-width="1px" />
<line x1="1120"   y1="0" x2="1120"   y2="2000" stroke="lightgrey" stroke-width="1px" />
<line x1="1140"   y1="0" x2="1140"   y2="2000" stroke="lightgrey" stroke-width="1px" />
<line x1="1160"   y1="0" x2="1160"   y2="2000" stroke="lightgrey" stroke-width="1px" />
<line x1="1180"   y1="0" x2="1180"   y2="2000" stroke="lightgrey" stroke-width="1px" />
<line x1="1200"   y1="0" x2="1200"   y2="2000" stroke="lightgrey" stroke-width="1px" />
<line x1="1220"   y1="0" x2="1220"   y2="2000" stroke="lightgrey" stroke-width="1px" />
<line x1="1240"   y1="0" x2="1240"   y2="2000" stroke="lightgrey" stroke-width="1px" />
<line x1="1260"   y1="0" x2="1260"   y2="2000" stroke="lightgrey" stroke-width="1px" />
<line x1="1280"   y1="0" x2="1280"   y2="2000" stroke="lightgrey" stroke-width="1px" />
<line x1="1300"   y1="0" x2="1300"   y2="2000" stroke="lightgrey" stroke-width="1px" />
<line x1="1320"   y1="0" x2="1320"   y2="2000" stroke="lightgrey" stroke-width="1px" />
<line x1="1340"   y1="0" x2="1340"   y2="2000" stroke="lightgrey" stroke-width="1px" />
<line x1="1360"   y1="0" x2="1360"   y2="2000" stroke="lightgrey" stroke-width="1px" />
<line x1="1380"   y1="0" x2="1380"   y2="2000" stroke="lightgrey" stroke-width="1px" />
<line x1="1400"   y1="0" x2="1400"   y2="2000" stroke="lightgrey" stroke-width="1px" />
<line x1="1420"   y1="0" x2="1420"   y2="2000" stroke="lightgrey" stroke-width="1px" />
<line x1="1440"   y1="0" x2="1440"   y2="2000" stroke="lightgrey" stroke-width="1px" />
<line x1="1460"   y1="0" x2="1460"   y2="2000" stroke="lightgrey" stroke-width="1px" />
<line x1="1480"   y1="0" x2="1480"   y2="2000" stroke="lightgrey" stroke-width="1px" />
<line x1="1500"   y1="0" x2="1500"   y2="2000" stroke="lightgrey" stroke-width="1px" />
<line x1="1520"   y1="0" x2="1520"   y2="2000" stroke="lightgrey" stroke-width="1px" />
<line x1="1540"   y1="0" x2="1540"   y2="2000" stroke="lightgrey" stroke-width="1px" />
<line x1="1560"   y1="0" x2="1560"   y2="2000" stroke="lightgrey" stroke-width="1px" />
<line x1="1580"   y1="0" x2="1580"   y2="2000" stroke="lightgrey" stroke-width="1px" />
<line x1="1600"   y1="0" x2="1600"   y2="2000" stroke="lightgrey" stroke-width="1px" />
<line x1="1620"   y1="0" x2="1620"   y2="2000" stroke="lightgrey" stroke-width="1px" />
<line x1="1640"   y1="0" x2="1640"   y2="2000" stroke="lightgrey" stroke-width="1px" />
<line x1="1660"   y1="0" x2="1660"   y2="2000" stroke="lightgrey" stroke-width="1px" />
<line x1="1680"   y1="0" x2="1680"   y2="2000" stroke="lightgrey" stroke-width="1px" />
<line x1="1700"   y1="0" x2="1700"   y2="2000" stroke="lightgrey" stroke-width="1px" />
<line x1="1720"   y1="0" x2="1720"   y2="2000" stroke="lightgrey" stroke-width="1px" />
<line x1="1740"   y1="0" x2="1740"   y2="2000" stroke="lightgrey" stroke-width="1px" />
<line x1="1760"   y1="0" x2="1760"   y2="2000" stroke="lightgrey" stroke-width="1px" />
<line x1="1780"   y1="0" x2="1780"   y2="2000" stroke="lightgrey" stroke-width="1px" />
<line x1="1800"   y1="0" x2="1800"   y2="2000" stroke="lightgrey" stroke-width="1px" />
<line x1="1820"   y1="0" x2="1820"   y2="2000" stroke="lightgrey" stroke-width="1px" />
<line x1="1840"   y1="0" x2="1840"   y2="2000" stroke="lightgrey" stroke-width="1px" />
<line x1="1860"   y1="0" x2="1860"   y2="2000" stroke="lightgrey" stroke-width="1px" />
<line x1="1880"   y1="0" x2="1880"   y2="2000" stroke="lightgrey" stroke-width="1px" />
<line x1="1900"   y1="0" x2="1900"   y2="2000" stroke="lightgrey" stroke-width="1px" />
<line x1="1920"   y1="0" x2="1920"   y2="2000" stroke="lightgrey" stroke-width="1px" />
<line x1="1940"   y1="0" x2="1940"   y2="2000" stroke="lightgrey" stroke-width="1px" />
<line x1="1960"   y1="0" x2="1960"   y2="2000" stroke="lightgrey" stroke-width="1px" />
<line x1="1980"   y1="0" x2="1980"   y2="2000" stroke="lightgrey" stroke-width="1px" />
<!-- Waagerechte -->
<line y1="0"   x1="0" y2="0"   x2="2000" stroke="lightgrey" stroke-width="1px" />
<line y1="20"   x1="0" y2="20"   x2="2000" stroke="lightgrey" stroke-width="1px" />
<line y1="40"   x1="0" y2="40"   x2="2000" stroke="lightgrey" stroke-width="1px" />
<line y1="60"   x1="0" y2="60"   x2="2000" stroke="lightgrey" stroke-width="1px" />
<line y1="80"   x1="0" y2="80"   x2="2000" stroke="lightgrey" stroke-width="1px" />
<line y1="100"   x1="0" y2="100"   x2="2000" stroke="lightgrey" stroke-width="1px" />
<line y1="120"   x1="0" y2="120"   x2="2000" stroke="lightgrey" stroke-width="1px" />
<line y1="140"   x1="0" y2="140"   x2="2000" stroke="lightgrey" stroke-width="1px" />
<line y1="160"   x1="0" y2="160"   x2="2000" stroke="lightgrey" stroke-width="1px" />
<line y1="180"   x1="0" y2="180"   x2="2000" stroke="lightgrey" stroke-width="1px" />
<line y1="200"   x1="0" y2="200"   x2="2000" stroke="lightgrey" stroke-width="1px" />
<line y1="220"   x1="0" y2="220"   x2="2000" stroke="lightgrey" stroke-width="1px" />
<line y1="240"   x1="0" y2="240"   x2="2000" stroke="lightgrey" stroke-width="1px" />
<line y1="260"   x1="0" y2="260"   x2="2000" stroke="lightgrey" stroke-width="1px" />
<line y1="280"   x1="0" y2="280"   x2="2000" stroke="lightgrey" stroke-width="1px" />
<line y1="300"   x1="0" y2="300"   x2="2000" stroke="lightgrey" stroke-width="1px" />
<line y1="320"   x1="0" y2="320"   x2="2000" stroke="lightgrey" stroke-width="1px" />
<line y1="340"   x1="0" y2="340"   x2="2000" stroke="lightgrey" stroke-width="1px" />
<line y1="360"   x1="0" y2="360"   x2="2000" stroke="lightgrey" stroke-width="1px" />
<line y1="380"   x1="0" y2="380"   x2="2000" stroke="lightgrey" stroke-width="1px" />
<line y1="400"   x1="0" y2="400"   x2="2000" stroke="lightgrey" stroke-width="1px" />
<line y1="420"   x1="0" y2="420"   x2="2000" stroke="lightgrey" stroke-width="1px" />
<line y1="440"   x1="0" y2="440"   x2="2000" stroke="lightgrey" stroke-width="1px" />
<line y1="460"   x1="0" y2="460"   x2="2000" stroke="lightgrey" stroke-width="1px" />
<line y1="480"   x1="0" y2="480"   x2="2000" stroke="lightgrey" stroke-width="1px" />
<line y1="500"   x1="0" y2="500"   x2="2000" stroke="lightgrey" stroke-width="1px" />
<line y1="520"   x1="0" y2="520"   x2="2000" stroke="lightgrey" stroke-width="1px" />
<line y1="540"   x1="0" y2="540"   x2="2000" stroke="lightgrey" stroke-width="1px" />
<line y1="560"   x1="0" y2="560"   x2="2000" stroke="lightgrey" stroke-width="1px" />
<line y1="580"   x1="0" y2="580"   x2="2000" stroke="lightgrey" stroke-width="1px" />
<line y1="600"   x1="0" y2="600"   x2="2000" stroke="lightgrey" stroke-width="1px" />
<line y1="620"   x1="0" y2="620"   x2="2000" stroke="lightgrey" stroke-width="1px" />
<line y1="640"   x1="0" y2="640"   x2="2000" stroke="lightgrey" stroke-width="1px" />
<line y1="660"   x1="0" y2="660"   x2="2000" stroke="lightgrey" stroke-width="1px" />
<line y1="680"   x1="0" y2="680"   x2="2000" stroke="lightgrey" stroke-width="1px" />
<line y1="700"   x1="0" y2="700"   x2="2000" stroke="lightgrey" stroke-width="1px" />
<line y1="720"   x1="0" y2="720"   x2="2000" stroke="lightgrey" stroke-width="1px" />
<line y1="740"   x1="0" y2="740"   x2="2000" stroke="lightgrey" stroke-width="1px" />
<line y1="760"   x1="0" y2="760"   x2="2000" stroke="lightgrey" stroke-width="1px" />
<line y1="780"   x1="0" y2="780"   x2="2000" stroke="lightgrey" stroke-width="1px" />
<line y1="800"   x1="0" y2="800"   x2="2000" stroke="lightgrey" stroke-width="1px" />
<line y1="820"   x1="0" y2="820"   x2="2000" stroke="lightgrey" stroke-width="1px" />
<line y1="840"   x1="0" y2="840"   x2="2000" stroke="lightgrey" stroke-width="1px" />
<line y1="860"   x1="0" y2="860"   x2="2000" stroke="lightgrey" stroke-width="1px" />
<line y1="880"   x1="0" y2="880"   x2="2000" stroke="lightgrey" stroke-width="1px" />
<line y1="900"   x1="0" y2="900"   x2="2000" stroke="lightgrey" stroke-width="1px" />
<line y1="920"   x1="0" y2="920"   x2="2000" stroke="lightgrey" stroke-width="1px" />
<line y1="940"   x1="0" y2="940"   x2="2000" stroke="lightgrey" stroke-width="1px" />
<line y1="960"   x1="0" y2="960"   x2="2000" stroke="lightgrey" stroke-width="1px" />
<line y1="980"   x1="0" y2="980"   x2="2000" stroke="lightgrey" stroke-width="1px" />
<line y1="1000"   x1="0" y2="1000"   x2="2000" stroke="lightgrey" stroke-width="1px" />
<line y1="1020"   x1="0" y2="1020"   x2="2000" stroke="lightgrey" stroke-width="1px" />
<line y1="1040"   x1="0" y2="1040"   x2="2000" stroke="lightgrey" stroke-width="1px" />
<line y1="1060"   x1="0" y2="1060"   x2="2000" stroke="lightgrey" stroke-width="1px" />
<line y1="1080"   x1="0" y2="1080"   x2="2000" stroke="lightgrey" stroke-width="1px" />
<line y1="1100"   x1="0" y2="1100"   x2="2000" stroke="lightgrey" stroke-width="1px" />
<line y1="1120"   x1="0" y2="1120"   x2="2000" stroke="lightgrey" stroke-width="1px" />
<line y1="1140"   x1="0" y2="1140"   x2="2000" stroke="lightgrey" stroke-width="1px" />
<line y1="1160"   x1="0" y2="1160"   x2="2000" stroke="lightgrey" stroke-width="1px" />
<line y1="1180"   x1="0" y2="1180"   x2="2000" stroke="lightgrey" stroke-width="1px" />
<line y1="1200"   x1="0" y2="1200"   x2="2000" stroke="lightgrey" stroke-width="1px" />
<line y1="1220"   x1="0" y2="1220"   x2="2000" stroke="lightgrey" stroke-width="1px" />
<line y1="1240"   x1="0" y2="1240"   x2="2000" stroke="lightgrey" stroke-width="1px" />
<line y1="1260"   x1="0" y2="1260"   x2="2000" stroke="lightgrey" stroke-width="1px" />
<line y1="1280"   x1="0" y2="1280"   x2="2000" stroke="lightgrey" stroke-width="1px" />
<line y1="1300"   x1="0" y2="1300"   x2="2000" stroke="lightgrey" stroke-width="1px" />
<line y1="1320"   x1="0" y2="1320"   x2="2000" stroke="lightgrey" stroke-width="1px" />
<line y1="1340"   x1="0" y2="1340"   x2="2000" stroke="lightgrey" stroke-width="1px" />
<line y1="1360"   x1="0" y2="1360"   x2="2000" stroke="lightgrey" stroke-width="1px" />
<line y1="1380"   x1="0" y2="1380"   x2="2000" stroke="lightgrey" stroke-width="1px" />
<line y1="1400"   x1="0" y2="1400"   x2="2000" stroke="lightgrey" stroke-width="1px" />
<line y1="1420"   x1="0" y2="1420"   x2="2000" stroke="lightgrey" stroke-width="1px" />
<line y1="1440"   x1="0" y2="1440"   x2="2000" stroke="lightgrey" stroke-width="1px" />
<line y1="1460"   x1="0" y2="1460"   x2="2000" stroke="lightgrey" stroke-width="1px" />
<line y1="1480"   x1="0" y2="1480"   x2="2000" stroke="lightgrey" stroke-width="1px" />
<line y1="1500"   x1="0" y2="1500"   x2="2000" stroke="lightgrey" stroke-width="1px" />
<line y1="1520"   x1="0" y2="1520"   x2="2000" stroke="lightgrey" stroke-width="1px" />
<line y1="1540"   x1="0" y2="1540"   x2="2000" stroke="lightgrey" stroke-width="1px" />
<line y1="1560"   x1="0" y2="1560"   x2="2000" stroke="lightgrey" stroke-width="1px" />
<line y1="1580"   x1="0" y2="1580"   x2="2000" stroke="lightgrey" stroke-width="1px" />
<line y1="1600"   x1="0" y2="1600"   x2="2000" stroke="lightgrey" stroke-width="1px" />
<line y1="1620"   x1="0" y2="1620"   x2="2000" stroke="lightgrey" stroke-width="1px" />
<line y1="1640"   x1="0" y2="1640"   x2="2000" stroke="lightgrey" stroke-width="1px" />
<line y1="1660"   x1="0" y2="1660"   x2="2000" stroke="lightgrey" stroke-width="1px" />
<line y1="1680"   x1="0" y2="1680"   x2="2000" stroke="lightgrey" stroke-width="1px" />
<line y1="1700"   x1="0" y2="1700"   x2="2000" stroke="lightgrey" stroke-width="1px" />
<line y1="1720"   x1="0" y2="1720"   x2="2000" stroke="lightgrey" stroke-width="1px" />
<line y1="1740"   x1="0" y2="1740"   x2="2000" stroke="lightgrey" stroke-width="1px" />
<line y1="1760"   x1="0" y2="1760"   x2="2000" stroke="lightgrey" stroke-width="1px" />
<line y1="1780"   x1="0" y2="1780"   x2="2000" stroke="lightgrey" stroke-width="1px" />
<line y1="1800"   x1="0" y2="1800"   x2="2000" stroke="lightgrey" stroke-width="1px" />
<line y1="1820"   x1="0" y2="1820"   x2="2000" stroke="lightgrey" stroke-width="1px" />
<line y1="1840"   x1="0" y2="1840"   x2="2000" stroke="lightgrey" stroke-width="1px" />
<line y1="1860"   x1="0" y2="1860"   x2="2000" stroke="lightgrey" stroke-width="1px" />
<line y1="1880"   x1="0" y2="1880"   x2="2000" stroke="lightgrey" stroke-width="1px" />
<line y1="1900"   x1="0" y2="1900"   x2="2000" stroke="lightgrey" stroke-width="1px" />
<line y1="1920"   x1="0" y2="1920"   x2="2000" stroke="lightgrey" stroke-width="1px" />
<line y1="1940"   x1="0" y2="1940"   x2="2000" stroke="lightgrey" stroke-width="1px" />
<line y1="1960"   x1="0" y2="1960"   x2="2000" stroke="lightgrey" stroke-width="1px" />
<line y1="1980"   x1="0" y2="1980"   x2="2000" stroke="lightgrey" stroke-width="1px" />
<!-- Grundelemente -->
<g fill="none" stroke-linecap="round"><path id="ring1"  d="M 0,0   Q -40,30 -40,60    A 20,20 0, 1, 0 40,60   Q 40,30 0,0" /></g>  <!-- Tropfen, Spitze oben -->
<g fill="none" stroke-linecap="round"><path id="ring2"  d="M 0,0   Q -36,36 -36,72    A 17,17 0, 1, 0 36,72  Q 36,36 0,0" /></g>  <!-- Tropfen, Spitze oben -->
<g fill="none" stroke-linecap="round"><path id="ring3"  d="M 0,0   Q -28,43 -28,87    A 14,14 0, 1, 0 28,87   Q 28,43 0,0" /></g>  <!-- Tropfen, Spitze oben -->
<g fill="none" stroke-linecap="round"><path id="chain1" d="M 0,0   Q 60,-50 120,0" /></g>   <!-- Bogen, leicht nach oben gewölbt -->
<g fill="none" stroke-linecap="round"><path id="chain2" d="M 0,0   Q 60, 50 120,0" /></g>   <!-- Bogen, leicht nach unten gewölbt -->
<g fill="none" stroke-linecap="round"><path id="chain3" d="M 0,0   Q 41,-69 83,0" /></g>    <!-- Bogen, mittel nach oben gewölbt -->
<g fill="none" stroke-linecap="round"><path id="chain4" d="M 0,0   Q 41, 69 83,0" /></g>    <!-- Bogen, mittel nach unten gewölbt -->
<g fill="none" stroke-linecap="round"><path id="chain5" d="M 0,0   Q 30,-74 59,0" /></g>    <!-- Bogen, stark nach oben gewölbt -->
<g fill="none" stroke-linecap="round"><path id="chain6" d="M 0,0   Q 30, 74 59,0" /></g>    <!-- Bogen, stark nach unten gewölbt -->
<g fill="none" stroke-linecap="round"><path id="picot"  d="M 0,0   Q -6,10 -6,16     A 6,6 0, 1, 0 6,16     Q 6,10 0,0"  /></g> <!-- Zierpicot, normal groß, Spitze oben -->

<!-- Individueller Teil -->
<g id="R1" fill="none" stroke-linecap="round">
   <use transform="scale(0.23 0.23)" xlink:href="#ring1"/>
   <use transform="translate(-7.82 8.05) rotate(120) scale(0.23 0.23)" xlink:href="#picot"/>
   <use transform="translate(-8.51 17.25) rotate(72) scale(0.23 0.23)" xlink:href="#picot"/>
   <use transform="translate(0.0 23.0) rotate(0) scale(0.115 0.115)" xlink:href="#picot"/>
   <use transform="translate(8.51 17.25) rotate(288) scale(0.23 0.23)" xlink:href="#picot"/>
   <use transform="translate(7.82 8.05) rotate(240) scale(0.115 0.115)" xlink:href="#picot"/>
</g>
<g id="R2" fill="none" stroke-linecap="round">
   <use transform="scale(0.23 0.23)" xlink:href="#ring1"/>
   <use transform="translate(-7.82 8.05) rotate(120) scale(0.115 0.115)" xlink:href="#picot"/>
   <use transform="translate(-8.51 17.25) rotate(72) scale(0.23 0.23)" xlink:href="#picot"/>
   <use transform="translate(0.0 23.0) rotate(0) scale(0.23 0.23)" xlink:href="#picot"/>
   <use transform="translate(8.51 17.25) rotate(288) scale(0.23 0.23)" xlink:href="#picot"/>
   <use transform="translate(7.82 8.05) rotate(240) scale(0.115 0.115)" xlink:href="#picot"/>
</g>
<g id="R3" fill="none" stroke-linecap="round">
   <use transform="scale(0.23 0.23)" xlink:href="#ring1"/>
   <use transform="translate(-7.82 8.05) rotate(120) scale(0.115 0.115)" xlink:href="#picot"/>
   <use transform="translate(-8.51 17.25) rotate(72) scale(0.23 0.23)" xlink:href="#picot"/>
   <use transform="translate(0.0 23.0) rotate(0) scale(0.115 0.115)" xlink:href="#picot"/>
   <use transform="translate(8.51 17.25) rotate(288) scale(0.23 0.23)" xlink:href="#picot"/>
   <use transform="translate(7.82 8.05) rotate(240) scale(0.23 0.23)" xlink:href="#picot"/>
</g>
<g id="R4" fill="none" stroke-linecap="round">
   <use transform="scale(0.23 0.23)" xlink:href="#ring2"/>
   <use transform="translate(-7.82 8.05) rotate(120) scale(0.23 0.23)" xlink:href="#picot"/>
   <use transform="translate(-8.51 17.25) rotate(72) scale(0.23 0.23)" xlink:href="#picot"/>
   <use transform="translate(0.0 23.0) rotate(0) scale(0.115 0.115)" xlink:href="#picot"/>
   <use transform="translate(8.51 17.25) rotate(288) scale(0.23 0.23)" xlink:href="#picot"/>
   <use transform="translate(7.82 8.05) rotate(240) scale(0.115 0.115)" xlink:href="#picot"/>
</g>
<g id="R5" fill="none" stroke-linecap="round">
   <use transform="scale(0.23 0.23)" xlink:href="#ring2"/>
   <use transform="translate(-7.82 8.05) rotate(120) scale(0.23 0.23)" xlink:href="#picot"/>
   <use transform="translate(-8.51 17.25) rotate(72) scale(0.23 0.23)" xlink:href="#picot"/>
   <use transform="translate(0.0 23.0) rotate(0) scale(0.115 0.115)" xlink:href="#picot"/>
   <use transform="translate(8.51 17.25) rotate(288) scale(0.23 0.23)" xlink:href="#picot"/>
   <use transform="translate(7.82 8.05) rotate(240) scale(0.23 0.23)" xlink:href="#picot"/>
</g>
<g id="R6" fill="none" stroke-linecap="round">
   <use transform="scale(0.23 0.23)" xlink:href="#ring3"/>
   <use transform="translate(-7.82 8.05) rotate(120) scale(0.23 0.23)" xlink:href="#picot"/>
   <use transform="translate(-8.51 17.25) rotate(72) scale(0.23 0.23)" xlink:href="#picot"/>
   <use transform="translate(0.0 23.0) rotate(0) scale(0.115 0.115)" xlink:href="#picot"/>
   <use transform="translate(8.51 17.25) rotate(288) scale(0.23 0.23)" xlink:href="#picot"/>
   <use transform="translate(7.82 8.05) rotate(240) scale(0.115 0.115)" xlink:href="#picot"/>
</g>
<g id="c1" fill="none" stroke-linecap="round"><use transform="scale(0.72 0.72)" xlink:href="#chain2"/></g>
<g id="c2" fill="none" stroke-linecap="round"><use transform="scale(0.96 0.96)" xlink:href="#chain4"/></g>
<g id="c4" fill="none" stroke-linecap="round"><use transform="scale(1.04 1.04)" xlink:href="#chain4"/></g>
<g id="c5" fill="none" stroke-linecap="round"><use transform="scale(1.26 1.26)" xlink:href="#chain6"/></g>
<g id="R7" fill="none" stroke-linecap="round">
   <use transform="scale(0.25 0.25)" xlink:href="#ring1"/>
</g>
<g id="R8" fill="none" stroke-linecap="round">
   <use transform="scale(0.25 0.25)" xlink:href="#ring2"/>
</g>
<g id="R9" fill="none" stroke-linecap="round">
   <use transform="scale(0.25 0.25)" xlink:href="#ring3"/>
</g>
<g id="C1" fill="none" stroke-linecap="round"><use transform="scale(0.5 0.5)" xlink:href="#chain1"/></g>
<g id="C2" fill="none" stroke-linecap="round"><use transform="scale(0.5 0.5)" xlink:href="#chain3"/></g>
<g id="C3" fill="none" stroke-linecap="round"><use transform="scale(0.5 0.5)" xlink:href="#chain5"/></g>
<g id="X1" fill="none" stroke-linecap="round"><use xlink:href="#R7" transform="translate(0 0)  rotate(0)"/></g>
<!-- Ausgabe -->
<g stroke="black" fill="none" stroke-width="1" stroke-linecap="round"><use transform="translate(10 0)" xlink:href="#X1"/></g>
<g id="X2" fill="none" stroke-linecap="round"><use xlink:href="#R8" transform="translate(0 0)  rotate(0)"/></g>
<!-- Ausgabe -->
<g stroke="black" fill="none" stroke-width="1" stroke-linecap="round"><use transform="translate(30 0)" xlink:href="#X2"/></g>
<g id="X3" fill="none" stroke-linecap="round"><use xlink:href="#R9" transform="translate(0 0)  rotate(0)"/></g>
<!-- Ausgabe -->
<g stroke="black" fill="none" stroke-width="1" stroke-linecap="round"><use transform="translate(50 0)" xlink:href="#X3"/></g>
<g id="X4" fill="none" stroke-linecap="round"><use xlink:href="#C1" transform="translate(0 0)  rotate(0)"/></g>
<!-- Ausgabe -->
<g stroke="black" fill="none" stroke-width="1" stroke-linecap="round"><use transform="translate(50 0)" xlink:href="#X4"/></g>
<g id="X5" fill="none" stroke-linecap="round"><use xlink:href="#C2" transform="translate(0 0)  rotate(0)"/></g>
<!-- Ausgabe -->
<g stroke="black" fill="none" stroke-width="1" stroke-linecap="round"><use transform="translate(90 0)" xlink:href="#X5"/></g>
<g id="X6" fill="none" stroke-linecap="round"><use xlink:href="#C3" transform="translate(0 0)  rotate(0)"/></g>
<!-- Ausgabe -->
<g stroke="black" fill="none" stroke-width="1" stroke-linecap="round"><use transform="translate(120 0)" xlink:href="#X6"/></g>
<g id="F2" fill="none" stroke-linecap="round"><use xlink:href="#R6" transform="translate(0 0)  rotate(90.0)"/><use xlink:href="#R6" transform="translate(0.0 0.0)  rotate(180.0)"/><use xlink:href="#R6" transform="translate(0.0 0.0)  rotate(270.0)"/><use xlink:href="#c4" transform="translate(0.0 0.0)  rotate(0)"/></g>
<g id="F0" fill="none" stroke-linecap="round"><use xlink:href="#R6" transform="translate(0 0)  rotate(85.0)"/><use xlink:href="#R6" transform="translate(0.0 0.0)  rotate(145.0)"/><use xlink:href="#R6" transform="translate(0.0 0.0)  rotate(215.0)"/><use xlink:href="#R6" transform="translate(0.0 0.0)  rotate(275.0)"/><use xlink:href="#c1" transform="translate(0.0 0.0)  rotate(0)"/></g>
<g id="F1" fill="none" stroke-linecap="round"><use xlink:href="#R4" transform="translate(0 0)  rotate(265.0)"/><use xlink:href="#R4" transform="translate(0.0 0.0)  rotate(180.0)"/><use xlink:href="#R5" transform="translate(0.0 0.0)  rotate(95.0)"/><use xlink:href="#c2" transform="translate(0.0 0.0)  rotate(0)"/></g>
<g id="F8" fill="none" stroke-linecap="round"><use xlink:href="#R1" transform="translate(0 0)  rotate(280.0)"/><use xlink:href="#R1" transform="translate(0.0 0.0)  rotate(180.0)"/><use xlink:href="#R3" transform="translate(0.0 0.0)  rotate(80.0)"/><use xlink:href="#c5" transform="translate(0.0 0.0)  rotate(0)"/></g>
<g id="F9" fill="none" stroke-linecap="round"><use xlink:href="#R1" transform="translate(0 0)  rotate(280.0)"/><use xlink:href="#R2" transform="translate(0.0 0.0)  rotate(180.0)"/><use xlink:href="#R3" transform="translate(0.0 0.0)  rotate(80.0)"/><use xlink:href="#c5" transform="translate(0.0 0.0)  rotate(10.0)"/></g>
<g id="Z3" fill="none" stroke-linecap="round"><use xlink:href="#F2" transform="translate(0 0)  rotate(0)"/><use xlink:href="#F2" transform="translate(86.112 0.0)  rotate(0)"/><use xlink:href="#F2" transform="translate(172.224 0.0)  rotate(0)"/><use xlink:href="#F2" transform="translate(258.336 0.0)  rotate(0)"/><use xlink:href="#F2" transform="translate(344.448 0.0)  rotate(0)"/></g>
<!-- Ausgabe -->
<g stroke="black" fill="none" stroke-width="1" stroke-linecap="round"><use transform="translate(40 100)" xlink:href="#Z3"/></g>
<g id="Z0" fill="none" stroke-linecap="round"><use xlink:href="#F0" transform="translate(0 0)  rotate(0)"/><use xlink:href="#F0" transform="translate(86.39999999999999 0.0)  rotate(0)"/><use xlink:href="#F0" transform="translate(172.79999999999998 0.0)  rotate(0)"/><use xlink:href="#F0" transform="translate(259.2 0.0)  rotate(0)"/><use xlink:href="#F0" transform="translate(345.59999999999997 0.0)  rotate(0)"/></g>
<!-- Ausgabe -->
<g stroke="black" fill="none" stroke-width="1" stroke-linecap="round"><use transform="translate(40 160)" xlink:href="#Z0"/></g>
<g id="Z1" fill="none" stroke-linecap="round"><use xlink:href="#F1" transform="translate(0 0)  rotate(0)"/><use xlink:href="#F1" transform="translate(79.48799999999999 0.0)  rotate(0)"/><use xlink:href="#F1" transform="translate(158.97599999999997 0.0)  rotate(0)"/><use xlink:href="#F1" transform="translate(238.46399999999994 0.0)  rotate(0)"/><use xlink:href="#F1" transform="translate(317.95199999999994 0.0)  rotate(0)"/><use xlink:href="#F1" transform="translate(397.43999999999994 0.0)  rotate(0)"/></g>
<!-- Ausgabe -->
<g stroke="black" fill="none" stroke-width="1" stroke-linecap="round"><use transform="translate(40 220)" xlink:href="#Z1"/></g>
<g id="Z8" fill="none" stroke-linecap="round"><use xlink:href="#F8" transform="translate(0 0)  rotate(0)"/><use xlink:href="#F8" transform="translate(74.088 0.0)  rotate(0)"/><use xlink:href="#F8" transform="translate(148.176 0.0)  rotate(0)"/><use xlink:href="#F8" transform="translate(222.26399999999998 0.0)  rotate(0)"/><use xlink:href="#F8" transform="translate(296.352 0.0)  rotate(0)"/><use xlink:href="#F8" transform="translate(370.43999999999994 0.0)  rotate(0)"/><use xlink:href="#F8" transform="translate(444.5279999999999 0.0)  rotate(0)"/></g>
<!-- Ausgabe -->
<g stroke="black" fill="none" stroke-width="1" stroke-linecap="round"><use transform="translate(40 280)" xlink:href="#Z8"/></g>
<g id="Z9" fill="none" stroke-linecap="round"><use xlink:href="#F9" transform="translate(0 0)  rotate(0)"/><use xlink:href="#F9" transform="translate(72.96243680516847 12.865246186987534)  rotate(20.0)"/><use xlink:href="#F9" transform="translate(137.12452692074996 49.90924618698753)  rotate(40.0)"/><use xlink:href="#F9" transform="translate(184.7473753472063 106.66394688878637)  rotate(60.0)"/><use xlink:href="#F9" transform="translate(210.08696372591842 176.28389377757273)  rotate(80.0)"/><use xlink:href="#F9" transform="translate(210.08696372591842 250.37189377757272)  rotate(100.0)"/><use xlink:href="#F9" transform="translate(184.7473753472063 319.9918406663591)  rotate(120.0)"/><use xlink:href="#F9" transform="translate(137.12452692075 376.746541368158)  rotate(140.0)"/><use xlink:href="#F9" transform="translate(72.96243680516851 413.790541368158)  rotate(160.0)"/><use xlink:href="#F9" transform="translate(5.240252676230739e-14 426.65578755514554)  rotate(180.0)"/><use xlink:href="#F9" transform="translate(-72.96243680516841 413.790541368158)  rotate(200.0)"/><use xlink:href="#F9" transform="translate(-137.1245269207499 376.74654136815803)  rotate(220.0)"/><use xlink:href="#F9" transform="translate(-184.74737534720623 319.9918406663592)  rotate(240.0)"/><use xlink:href="#F9" transform="translate(-210.0869637259184 250.3718937775729)  rotate(260.0)"/><use xlink:href="#F9" transform="translate(-210.0869637259184 176.2838937775729)  rotate(280.0)"/><use xlink:href="#F9" transform="translate(-184.74737534720626 106.66394688878651)  rotate(300.0)"/><use xlink:href="#F9" transform="translate(-137.12452692074993 49.90924618698767)  rotate(320.0)"/><use xlink:href="#F9" transform="translate(-72.96243680516847 12.865246186987651)  rotate(340.0)"/></g>
<!-- Ausgabe -->
<g stroke="black" fill="none" stroke-width="1" stroke-linecap="round"><use transform="translate(180 340)" xlink:href="#Z9"/></g>
</svg>