<?xml version="1.0" encoding="UTF-8"?>
<svg xmlns="http://www.w3.org/2000/svg"
    xmlns:xlink="http://www.w3.org/1999/xlink"
    version="1.1" baseProfile="full"
    width="500mm" height="500mm"
    viewBox="-20 -20 700 700">
    <title>Titel der Datei</title>
    <desc>Beschreibung/Textalternative zum Inhalt.</desc>

<!--Inhalt der Datei -->

<!-- Koordinatensystem -->
<!-- Senkrechte -->
<!-- Grundelemente -->
<g fill="none" stroke-linecap="round"><path id="Ra"  d="M 0,0   Q -40,30 -40,60    A 1,1 0, 1, 0 40,60   Q 40,30 0,0" /></g>    <!-- Tropfen, Spitze oben -->
<g fill="none" stroke-linecap="round"><path id="Rb" d="M 0,0   Q -36,36 -36,72    A 1,1 0, 1, 0 36,72   Q 36,36 0,0" /></g>     <!-- Tropfen, Spitze oben -->
<g fill="none" stroke-linecap="round"><path id="Rc" d="M 0,0   Q -28,43 -28,87    A 1,1 0, 1, 0 28,87   Q 28,43 0,0" /></g>     <!-- Tropfen, Spitze oben -->
<g fill="none" stroke-linecap="round"><path id="Cf" d="M 0,0   Q 90,-188 180,0" /></g>  <!-- Bogen, nach oben gewölbt -->
<g fill="none" stroke-linecap="round"><path id="Ce" d="M 0,0   Q 108,-150 216,0" /></g> <!-- Bogen, nach oben gewölbt -->
<g fill="none" stroke-linecap="round"><path id="Cd" d="M 0,0   Q 120,-116 240,0" /></g> <!-- Bogen, nach oben gewölbt -->
<g fill="none" stroke-linecap="round"><path id="Cc" d="M 0,0   Q 130,-72 260,0" /></g>  <!-- Bogen, nach oben gewölbt -->
<g fill="none" stroke-linecap="round"><path id="Cb" d="M 0,0   Q 135,-35 270,0" /></g>  <!-- Bogen, nach oben gewölbt -->
<g fill="none" stroke-linecap="round"><path id="Ca" d="M 0,0   Q 136,-2 273,0" /></g>   <!-- Bogen, nach oben gewölbt -->
<g fill="none" stroke-linecap="round"><path id="Cg" d="M 0,0   Q 75,-214 150,0" /></g>  <!-- Bogen, nach unten gewölbt -->
<g fill="none" stroke-linecap="round"><path id="ca" d="M 0,0   Q 90,188 180,0" /></g>   <!-- Bogen, nach unten gewölbt -->
<g fill="none" stroke-linecap="round"><path id="cb" d="M 0,0   Q 108,150 216,0" /></g>  <!-- Bogen, nach unten gewölbt -->
<g fill="none" stroke-linecap="round"><path id="cc" d="M 0,0   Q 120,116 240,0" /></g>  <!-- Bogen, nach unten gewölbt -->
<g fill="none" stroke-linecap="round"><path id="cd" d="M 0,0   Q 130,72 260,0" /></g>   <!-- Bogen, nach unten gewölbt -->
<g fill="none" stroke-linecap="round"><path id="ce" d="M 0,0   Q 135,35 270,0" /></g>   <!-- Bogen, nach unten gewölbt -->
<g fill="none" stroke-linecap="round"><path id="cf" d="M 0,0   Q 136,2 273,0" /></g>    <!-- Bogen, nach unten gewölbt -->
<g fill="none" stroke-linecap="round"><path id="cg" d="M 0,0   Q 75,214 150,0" /></g>   <!-- Bogen, nach unten gewölbt -->
<g fill="none" stroke-linecap="round"><path id="picot"  d="M 0,0   Q -6,10 -6,16     A 6,6 0, 1, 0 6,16     Q 6,10 0,0"  /></g> <!-- Zierpicot, normal groß, Spitze oben -->

<!-- Individueller Teil -->
<g id="R1" fill="none" stroke-linecap="round">
   <use transform="scale(0.23 0.23)" xlink:href="#Rb"/>
   <use transform="translate(-6.9 9.66) rotate(115) scale(0.115 0.115)" xlink:href="#picot"/>
   <use transform="translate(-7.82 19.32) rotate(64) scale(0.23 0.23)" xlink:href="#picot"/>
   <use transform="translate(1.3800000000000001 24.84) rotate(350) scale(0.115 0.115)" xlink:href="#picot"/>
   <use transform="translate(8.280000000000001 18.17) rotate(288) scale(0.23 0.23)" xlink:href="#picot"/>
   <use transform="translate(6.44 8.280000000000001) rotate(240) scale(0.23 0.23)" xlink:href="#picot"/>
</g>
<g id="R2" fill="none" stroke-linecap="round">
   <use transform="scale(0.23 0.23)" xlink:href="#Rb"/>
   <use transform="translate(-6.9 9.66) rotate(115) scale(0.115 0.115)" xlink:href="#picot"/>
   <use transform="translate(-7.82 19.32) rotate(64) scale(0.23 0.23)" xlink:href="#picot"/>
   <use transform="translate(1.3800000000000001 24.84) rotate(350) scale(0.23 0.23)" xlink:href="#picot"/>
   <use transform="translate(8.280000000000001 18.17) rotate(288) scale(0.23 0.23)" xlink:href="#picot"/>
   <use transform="translate(6.44 8.280000000000001) rotate(240) scale(0.115 0.115)" xlink:href="#picot"/>
</g>
<g id="R3" fill="none" stroke-linecap="round">
   <use transform="scale(0.23 0.23)" xlink:href="#Rb"/>
   <use transform="translate(-6.9 9.66) rotate(115) scale(0.23 0.23)" xlink:href="#picot"/>
   <use transform="translate(-7.82 19.32) rotate(64) scale(0.23 0.23)" xlink:href="#picot"/>
   <use transform="translate(1.3800000000000001 24.84) rotate(350) scale(0.115 0.115)" xlink:href="#picot"/>
   <use transform="translate(8.280000000000001 18.17) rotate(288) scale(0.23 0.23)" xlink:href="#picot"/>
   <use transform="translate(6.44 8.280000000000001) rotate(240) scale(0.115 0.115)" xlink:href="#picot"/>
</g>
<g id="R4" fill="none" stroke-linecap="round">
   <use transform="scale(0.23 0.23)" xlink:href="#Rb"/>
   <use transform="translate(-6.9 9.66) rotate(115) scale(0.23 0.23)" xlink:href="#picot"/>
   <use transform="translate(-7.82 19.32) rotate(64) scale(0.23 0.23)" xlink:href="#picot"/>
   <use transform="translate(1.3800000000000001 24.84) rotate(350) scale(0.115 0.115)" xlink:href="#picot"/>
   <use transform="translate(8.280000000000001 18.17) rotate(288) scale(0.23 0.23)" xlink:href="#picot"/>
   <use transform="translate(6.44 8.280000000000001) rotate(240) scale(0.115 0.115)" xlink:href="#picot"/>
</g>
<g id="R5" fill="none" stroke-linecap="round">
   <use transform="scale(0.23 0.23)" xlink:href="#Rb"/>
   <use transform="translate(-6.9 9.66) rotate(115) scale(0.115 0.115)" xlink:href="#picot"/>
   <use transform="translate(-7.82 19.32) rotate(64) scale(0.23 0.23)" xlink:href="#picot"/>
   <use transform="translate(1.3800000000000001 24.84) rotate(350) scale(0.23 0.23)" xlink:href="#picot"/>
   <use transform="translate(8.280000000000001 18.17) rotate(288) scale(0.115 0.115)" xlink:href="#picot"/>
   <use transform="translate(6.44 8.280000000000001) rotate(240) scale(0.23 0.23)" xlink:href="#picot"/>
</g>
<g id="R6" fill="none" stroke-linecap="round">
   <use transform="scale(0.23 0.23)" xlink:href="#Rb"/>
   <use transform="translate(-6.9 9.66) rotate(115) scale(0.23 0.23)" xlink:href="#picot"/>
   <use transform="translate(-7.82 19.32) rotate(64) scale(0.115 0.115)" xlink:href="#picot"/>
   <use transform="translate(1.3800000000000001 24.84) rotate(350) scale(0.23 0.23)" xlink:href="#picot"/>
   <use transform="translate(8.280000000000001 18.17) rotate(288) scale(0.23 0.23)" xlink:href="#picot"/>
   <use transform="translate(6.44 8.280000000000001) rotate(240) scale(0.115 0.115)" xlink:href="#picot"/>
</g>
<g id="c1" fill="none" stroke-linecap="round">
   <use transform="scale(0.28 0.28)" xlink:href="#ca"/>
</g>
<g id="c2" fill="none" stroke-linecap="round">
   <use transform="scale(0.17 0.17)" xlink:href="#cc"/>
</g>
<g id="F1" fill="none" stroke-linecap="round"><use xlink:href="#R1" transform="translate(0 0)  rotate(95.0)"/><use xlink:href="#R2" transform="translate(0.0 0.0)  rotate(180.0)"/><use xlink:href="#R3" transform="translate(0.0 0.0)  rotate(265.0)"/><use xlink:href="#c1" transform="translate(0.0 0.0)  rotate(0)"/></g>
<g id="F2" fill="none" stroke-linecap="round"><use xlink:href="#R4" transform="translate(0 0)  rotate(95.0)"/><use xlink:href="#R2" transform="translate(0.0 0.0)  rotate(180.0)"/><use xlink:href="#R5" transform="translate(0.0 0.0)  rotate(265.0)"/></g>
<g id="F3" fill="none" stroke-linecap="round"><use xlink:href="#R1" transform="translate(0 0)  rotate(95.0)"/><use xlink:href="#R2" transform="translate(0.0 0.0)  rotate(180.0)"/><use xlink:href="#R6" transform="translate(0.0 0.0)  rotate(265.0)"/><use xlink:href="#c2" transform="translate(0.0 0.0)  rotate(40.0)"/></g>
<g id="F4" fill="none" stroke-linecap="round"><use xlink:href="#R5" transform="translate(0 0)  rotate(95.0)"/><use xlink:href="#R2" transform="translate(0.0 0.0)  rotate(180.0)"/><use xlink:href="#R6" transform="translate(0.0 0.0)  rotate(265.0)"/><use xlink:href="#c2" transform="translate(0.0 0.0)  rotate(50.0)"/></g>
<g id="F5" fill="none" stroke-linecap="round"><use xlink:href="#R5" transform="translate(0 0)  rotate(95.0)"/><use xlink:href="#R2" transform="translate(0.0 0.0)  rotate(180.0)"/><use xlink:href="#R3" transform="translate(0.0 0.0)  rotate(265.0)"/><use xlink:href="#c1" transform="translate(0.0 0.0)  rotate(0)"/></g>
<g id="Z" fill="none" stroke-linecap="round"><use xlink:href="#F1" transform="translate(0 0)  rotate(0)"/><use xlink:href="#F1" transform="translate(50.400000000000006 0.0)  rotate(0)"/><use xlink:href="#F1" transform="translate(100.80000000000001 0.0)  rotate(0)"/><use xlink:href="#F1" transform="translate(151.20000000000002 0.0)  rotate(0)"/><use xlink:href="#F3" transform="translate(201.60000000000002 0.0)  rotate(0)"/><use xlink:href="#F4" transform="translate(232.85461327925432 26.225734475210803)  rotate(90.0)"/><use xlink:href="#F5" transform="translate(201.60000000000002 52.451468950421614)  rotate(180.0)"/><use xlink:href="#F1" transform="translate(151.20000000000002 52.45146895042162)  rotate(180.0)"/><use xlink:href="#F1" transform="translate(100.80000000000001 52.45146895042163)  rotate(180.0)"/><use xlink:href="#F1" transform="translate(50.400000000000006 52.451468950421635)  rotate(180.0)"/><use xlink:href="#F1" transform="translate(0.0 52.45146895042164)  rotate(180.0)"/><use xlink:href="#F3" transform="translate(-50.400000000000006 52.45146895042165)  rotate(180.0)"/><use xlink:href="#F4" transform="translate(-81.6546132792543 26.225734475210853)  rotate(270.0)"/><use xlink:href="#F5" transform="translate(-50.4 3.6891184828951936e-14)  rotate(0)"/></g>
<!-- Ausgabe -->
<g stroke="black" fill="none" stroke-width="1" stroke-linecap="round"><use transform="translate(120 100)" xlink:href="#Z"/></g>
</svg>